<mxfile host="app.diagrams.net" modified="2020-03-25T01:16:12.730Z" agent="Mozilla/5.0 (Windows NT 10.0; Win64; x64) AppleWebKit/537.36 (KHTML, like Gecko) Chrome/80.0.3987.149 Safari/537.36" etag="dqufpW6cMkAipE-FIkQU" version="12.9.2" type="github">
  <diagram id="_bJi-_G6ObQ1rda8Xxe6" name="Page-1">
    <mxGraphModel dx="920" dy="522" grid="1" gridSize="10" guides="1" tooltips="1" connect="1" arrows="1" fold="1" page="1" pageScale="1" pageWidth="827" pageHeight="1169" math="0" shadow="0">
      <root>
        <mxCell id="0" />
        <mxCell id="1" parent="0" />
        <mxCell id="XbG7mfmbwz7HFF7x4LPR-2" value="" style="shape=image;html=1;verticalAlign=top;verticalLabelPosition=bottom;labelBackgroundColor=#ffffff;imageAspect=0;aspect=fixed;image=https://cdn4.iconfinder.com/data/icons/basic-user-interface-elements/700/print-output-printer-128.png" vertex="1" parent="1">
          <mxGeometry x="10" y="60" width="30" height="30" as="geometry" />
        </mxCell>
        <mxCell id="jFOs6LI-pRZmXFruKSWG-10" value="" style="verticalLabelPosition=bottom;html=1;verticalAlign=top;align=center;strokeColor=none;fillColor=#00181F;shape=mxgraph.azure.computer;pointerEvents=1;" parent="1" vertex="1">
          <mxGeometry x="30" y="30" width="50" height="45" as="geometry" />
        </mxCell>
        <mxCell id="jFOs6LI-pRZmXFruKSWG-1" value="" style="verticalLabelPosition=bottom;html=1;verticalAlign=top;align=center;strokeColor=none;fillColor=#00181F;shape=mxgraph.azure.computer;pointerEvents=1;" parent="1" vertex="1">
          <mxGeometry x="618" y="100" width="50" height="45" as="geometry" />
        </mxCell>
        <mxCell id="XbG7mfmbwz7HFF7x4LPR-10" style="edgeStyle=orthogonalEdgeStyle;rounded=0;orthogonalLoop=1;jettySize=auto;html=1;entryX=1.01;entryY=0.535;entryDx=0;entryDy=0;entryPerimeter=0;" edge="1" parent="1" source="jFOs6LI-pRZmXFruKSWG-3" target="jFOs6LI-pRZmXFruKSWG-56">
          <mxGeometry relative="1" as="geometry">
            <Array as="points">
              <mxPoint x="760" y="185" />
              <mxPoint x="720" y="185" />
              <mxPoint x="720" y="201" />
            </Array>
          </mxGeometry>
        </mxCell>
        <mxCell id="jFOs6LI-pRZmXFruKSWG-3" value="" style="verticalLabelPosition=bottom;html=1;verticalAlign=top;align=center;strokeColor=none;fillColor=#00181F;shape=mxgraph.azure.computer;pointerEvents=1;" parent="1" vertex="1">
          <mxGeometry x="735" y="120" width="50" height="45" as="geometry" />
        </mxCell>
        <mxCell id="jFOs6LI-pRZmXFruKSWG-4" value="" style="verticalLabelPosition=bottom;html=1;verticalAlign=top;align=center;strokeColor=none;fillColor=#00181F;shape=mxgraph.azure.computer;pointerEvents=1;" parent="1" vertex="1">
          <mxGeometry x="539" y="100" width="50" height="45" as="geometry" />
        </mxCell>
        <mxCell id="jFOs6LI-pRZmXFruKSWG-6" value="" style="verticalLabelPosition=bottom;html=1;verticalAlign=top;align=center;strokeColor=none;fillColor=#00181F;shape=mxgraph.azure.computer;pointerEvents=1;" parent="1" vertex="1">
          <mxGeometry x="430" y="100" width="50" height="45" as="geometry" />
        </mxCell>
        <mxCell id="jFOs6LI-pRZmXFruKSWG-8" value="" style="verticalLabelPosition=bottom;html=1;verticalAlign=top;align=center;strokeColor=none;fillColor=#00181F;shape=mxgraph.azure.computer;pointerEvents=1;" parent="1" vertex="1">
          <mxGeometry x="350" y="100" width="50" height="45" as="geometry" />
        </mxCell>
        <mxCell id="jFOs6LI-pRZmXFruKSWG-49" style="edgeStyle=orthogonalEdgeStyle;rounded=0;orthogonalLoop=1;jettySize=auto;html=1;" parent="1" source="jFOs6LI-pRZmXFruKSWG-11" target="jFOs6LI-pRZmXFruKSWG-10" edge="1">
          <mxGeometry relative="1" as="geometry" />
        </mxCell>
        <mxCell id="jFOs6LI-pRZmXFruKSWG-11" value="MPK02" style="verticalLabelPosition=bottom;html=1;verticalAlign=top;align=center;strokeColor=none;fillColor=#00181F;shape=mxgraph.azure.computer;pointerEvents=1;" parent="1" vertex="1">
          <mxGeometry x="30" y="100" width="50" height="45" as="geometry" />
        </mxCell>
        <mxCell id="jFOs6LI-pRZmXFruKSWG-14" value="FT1A" style="verticalLabelPosition=bottom;html=1;verticalAlign=top;align=center;strokeColor=none;fillColor=#00181F;shape=mxgraph.azure.computer;pointerEvents=1;" parent="1" vertex="1">
          <mxGeometry x="618" y="240" width="50" height="45" as="geometry" />
        </mxCell>
        <mxCell id="jFOs6LI-pRZmXFruKSWG-15" value="FT2A" style="verticalLabelPosition=bottom;html=1;verticalAlign=top;align=center;strokeColor=none;fillColor=#00181F;shape=mxgraph.azure.computer;pointerEvents=1;" parent="1" vertex="1">
          <mxGeometry x="539" y="240" width="50" height="45" as="geometry" />
        </mxCell>
        <mxCell id="jFOs6LI-pRZmXFruKSWG-16" value="FT3A" style="verticalLabelPosition=bottom;html=1;verticalAlign=top;align=center;strokeColor=none;fillColor=#00181F;shape=mxgraph.azure.computer;pointerEvents=1;" parent="1" vertex="1">
          <mxGeometry x="430" y="240" width="50" height="45" as="geometry" />
        </mxCell>
        <mxCell id="jFOs6LI-pRZmXFruKSWG-17" value="FT4A" style="verticalLabelPosition=bottom;html=1;verticalAlign=top;align=center;strokeColor=none;fillColor=#00181F;shape=mxgraph.azure.computer;pointerEvents=1;" parent="1" vertex="1">
          <mxGeometry x="350" y="240" width="50" height="45" as="geometry" />
        </mxCell>
        <mxCell id="jFOs6LI-pRZmXFruKSWG-40" value="" style="edgeStyle=orthogonalEdgeStyle;rounded=0;orthogonalLoop=1;jettySize=auto;html=1;" parent="1" source="jFOs6LI-pRZmXFruKSWG-18" target="jFOs6LI-pRZmXFruKSWG-19" edge="1">
          <mxGeometry relative="1" as="geometry" />
        </mxCell>
        <mxCell id="jFOs6LI-pRZmXFruKSWG-47" style="edgeStyle=orthogonalEdgeStyle;rounded=0;orthogonalLoop=1;jettySize=auto;html=1;" parent="1" source="jFOs6LI-pRZmXFruKSWG-18" target="jFOs6LI-pRZmXFruKSWG-20" edge="1">
          <mxGeometry relative="1" as="geometry" />
        </mxCell>
        <mxCell id="jFOs6LI-pRZmXFruKSWG-18" value="" style="verticalLabelPosition=bottom;html=1;verticalAlign=top;align=center;strokeColor=none;fillColor=#00181F;shape=mxgraph.azure.computer;pointerEvents=1;" parent="1" vertex="1">
          <mxGeometry x="240" y="100" width="50" height="45" as="geometry" />
        </mxCell>
        <mxCell id="jFOs6LI-pRZmXFruKSWG-48" style="edgeStyle=orthogonalEdgeStyle;rounded=0;orthogonalLoop=1;jettySize=auto;html=1;" parent="1" source="jFOs6LI-pRZmXFruKSWG-19" target="jFOs6LI-pRZmXFruKSWG-11" edge="1">
          <mxGeometry relative="1" as="geometry" />
        </mxCell>
        <mxCell id="jFOs6LI-pRZmXFruKSWG-19" value="" style="verticalLabelPosition=bottom;html=1;verticalAlign=top;align=center;strokeColor=none;fillColor=#00181F;shape=mxgraph.azure.computer;pointerEvents=1;" parent="1" vertex="1">
          <mxGeometry x="130" y="100" width="50" height="45" as="geometry" />
        </mxCell>
        <mxCell id="jFOs6LI-pRZmXFruKSWG-20" value="" style="verticalLabelPosition=bottom;html=1;verticalAlign=top;align=center;strokeColor=none;fillColor=#00181F;shape=mxgraph.azure.computer;pointerEvents=1;" parent="1" vertex="1">
          <mxGeometry x="240" y="240" width="50" height="45" as="geometry" />
        </mxCell>
        <mxCell id="jFOs6LI-pRZmXFruKSWG-24" value="LGA" style="text;html=1;strokeColor=none;fillColor=none;align=center;verticalAlign=middle;whiteSpace=wrap;rounded=0;" parent="1" vertex="1">
          <mxGeometry x="740" y="95" width="40" height="20" as="geometry" />
        </mxCell>
        <mxCell id="jFOs6LI-pRZmXFruKSWG-25" value="OQC" style="text;html=1;strokeColor=none;fillColor=none;align=center;verticalAlign=middle;whiteSpace=wrap;rounded=0;" parent="1" vertex="1">
          <mxGeometry x="245" y="300" width="40" height="20" as="geometry" />
        </mxCell>
        <mxCell id="jFOs6LI-pRZmXFruKSWG-29" value="FT5B" style="text;html=1;strokeColor=none;fillColor=none;align=center;verticalAlign=middle;whiteSpace=wrap;rounded=0;" parent="1" vertex="1">
          <mxGeometry x="614.5" y="75" width="57" height="20" as="geometry" />
        </mxCell>
        <mxCell id="jFOs6LI-pRZmXFruKSWG-31" value="FT6B" style="text;html=1;strokeColor=none;fillColor=none;align=center;verticalAlign=middle;whiteSpace=wrap;rounded=0;" parent="1" vertex="1">
          <mxGeometry x="535.5" y="75" width="57" height="20" as="geometry" />
        </mxCell>
        <mxCell id="jFOs6LI-pRZmXFruKSWG-32" value="FT7B" style="text;html=1;strokeColor=none;fillColor=none;align=center;verticalAlign=middle;whiteSpace=wrap;rounded=0;" parent="1" vertex="1">
          <mxGeometry x="426.5" y="75" width="57" height="20" as="geometry" />
        </mxCell>
        <mxCell id="jFOs6LI-pRZmXFruKSWG-33" value="FT8B" style="text;html=1;strokeColor=none;fillColor=none;align=center;verticalAlign=middle;whiteSpace=wrap;rounded=0;" parent="1" vertex="1">
          <mxGeometry x="346.5" y="75" width="57" height="20" as="geometry" />
        </mxCell>
        <mxCell id="jFOs6LI-pRZmXFruKSWG-34" value="FQC" style="text;html=1;strokeColor=none;fillColor=none;align=center;verticalAlign=middle;whiteSpace=wrap;rounded=0;" parent="1" vertex="1">
          <mxGeometry x="236.5" y="75" width="57" height="20" as="geometry" />
        </mxCell>
        <mxCell id="jFOs6LI-pRZmXFruKSWG-36" value="MPK01" style="text;html=1;strokeColor=none;fillColor=none;align=center;verticalAlign=middle;whiteSpace=wrap;rounded=0;" parent="1" vertex="1">
          <mxGeometry x="126.5" y="75" width="57" height="20" as="geometry" />
        </mxCell>
        <mxCell id="jFOs6LI-pRZmXFruKSWG-37" value="MPK03" style="text;html=1;strokeColor=none;fillColor=none;align=center;verticalAlign=middle;whiteSpace=wrap;rounded=0;" parent="1" vertex="1">
          <mxGeometry x="26.5" width="57" height="20" as="geometry" />
        </mxCell>
        <mxCell id="jFOs6LI-pRZmXFruKSWG-58" style="edgeStyle=orthogonalEdgeStyle;rounded=0;orthogonalLoop=1;jettySize=auto;html=1;entryX=0.973;entryY=0.37;entryDx=0;entryDy=0;entryPerimeter=0;" parent="1" source="jFOs6LI-pRZmXFruKSWG-56" target="jFOs6LI-pRZmXFruKSWG-18" edge="1">
          <mxGeometry relative="1" as="geometry" />
        </mxCell>
        <mxCell id="jFOs6LI-pRZmXFruKSWG-56" value="" style="shape=ext;rounded=1;html=1;whiteSpace=wrap;dashed=1;dashPattern=1 4;fillColor=none;strokeColor=#005EBD;" parent="1" vertex="1">
          <mxGeometry x="340" y="65" width="360" height="255" as="geometry" />
        </mxCell>
        <mxCell id="jFOs6LI-pRZmXFruKSWG-57" value="FT" style="text;html=1;strokeColor=none;fillColor=none;align=center;verticalAlign=middle;whiteSpace=wrap;rounded=0;" parent="1" vertex="1">
          <mxGeometry x="490" y="40" width="40" height="20" as="geometry" />
        </mxCell>
        <mxCell id="XbG7mfmbwz7HFF7x4LPR-1" value="&lt;h1&gt;Asus Diagram&lt;/h1&gt;&lt;p&gt;Diagrama de estações SFC na projeto da ASUS.&lt;/p&gt;" style="text;html=1;strokeColor=none;fillColor=none;spacing=5;spacingTop=-20;whiteSpace=wrap;overflow=hidden;rounded=0;" vertex="1" parent="1">
          <mxGeometry x="20" y="190" width="200" height="120" as="geometry" />
        </mxCell>
        <mxCell id="XbG7mfmbwz7HFF7x4LPR-5" value="" style="shape=image;html=1;verticalAlign=top;verticalLabelPosition=bottom;labelBackgroundColor=#ffffff;imageAspect=0;aspect=fixed;image=https://cdn4.iconfinder.com/data/icons/basic-user-interface-elements/700/print-output-printer-128.png" vertex="1" parent="1">
          <mxGeometry x="10" y="127.5" width="30" height="30" as="geometry" />
        </mxCell>
        <mxCell id="XbG7mfmbwz7HFF7x4LPR-6" value="" style="shape=image;html=1;verticalAlign=top;verticalLabelPosition=bottom;labelBackgroundColor=#ffffff;imageAspect=0;aspect=fixed;image=https://cdn4.iconfinder.com/data/icons/basic-user-interface-elements/700/print-output-printer-128.png" vertex="1" parent="1">
          <mxGeometry x="110" y="127.5" width="30" height="30" as="geometry" />
        </mxCell>
        <mxCell id="XbG7mfmbwz7HFF7x4LPR-7" value="" style="shape=image;html=1;verticalAlign=top;verticalLabelPosition=bottom;labelBackgroundColor=#ffffff;imageAspect=0;aspect=fixed;image=https://cdn4.iconfinder.com/data/icons/basic-user-interface-elements/700/print-output-printer-128.png" vertex="1" parent="1">
          <mxGeometry x="720" y="150" width="30" height="30" as="geometry" />
        </mxCell>
      </root>
    </mxGraphModel>
  </diagram>
</mxfile>
